<svg xmlns="http://www.w3.org/2000/svg" width="1024" height="1024" viewBox="0 0 1024 1024" version="1.1"><path d="M 649 333 C 649 366.550, 649.174 394, 649.386 394 C 651.079 394, 673 357.077, 673 354.226 C 673 353.773, 671.425 352.832, 669.501 352.136 C 666.112 350.911, 663.409 347.766, 664.385 346.186 C 664.648 345.760, 670.069 342.058, 676.432 337.958 L 688 330.503 688 301.251 L 688 272 668.500 272 L 649 272 649 333 M 695 334.058 C 682.180 341.683, 673.975 347.390, 674.319 348.441 C 674.489 348.959, 676.051 350.084, 677.791 350.941 C 679.531 351.799, 680.965 353.281, 680.977 354.235 C 680.990 355.190, 678.732 360.293, 675.960 365.575 C 655.521 404.530, 614.706 449.889, 573.738 479.177 C 534.476 507.246, 496.438 523.954, 445.500 535.502 C 431.834 538.601, 399.093 545, 396.907 545 C 396.408 545, 396 545.450, 396 546 C 396 548.144, 419.697 546.237, 453 541.415 C 493.270 535.583, 536.596 520.065, 573.095 498.399 C 595.347 485.191, 624.833 460.918, 642.214 441.500 C 659.066 422.673, 681.331 391.386, 692.124 371.364 L 697.185 361.978 700.169 364.489 C 705.878 369.293, 706 368.948, 706 348 C 706 333.466, 705.706 329, 704.750 329.001 C 704.063 329.001, 699.675 331.277, 695 334.058 M 592 396.500 C 592 445.761, 592.232 456, 593.349 456 C 594.906 456, 609.800 440.827, 621.780 427.038 L 630 417.577 630 377.288 L 630 337 611 337 L 592 337 592 396.500 M 683.491 399.674 C 677.305 409.862, 666.786 424.656, 656.921 437.038 L 649 446.981 649 501.490 L 649 556 668.466 556 L 687.933 556 688.216 474.250 C 688.372 429.288, 688.437 392.362, 688.360 392.193 C 688.282 392.024, 686.091 395.390, 683.491 399.674 M 537 443.526 L 537 494.051 540.250 492.371 C 542.038 491.446, 544.625 489.906, 546 488.947 C 547.375 487.988, 553.675 483.945, 560 479.963 C 566.325 475.981, 572.513 471.807, 573.750 470.687 L 576 468.651 576 430.826 L 576 393 556.500 393 L 537 393 537 443.526 M 487 431.813 C 487 432.260, 488.391 433.948, 490.092 435.563 C 500.824 445.759, 499.566 461.650, 487.102 473.307 L 482.229 477.866 481.848 498.950 C 481.594 512.982, 481.807 519.900, 482.483 519.633 C 483.043 519.412, 490.013 516.662, 497.973 513.522 C 505.933 510.382, 514.146 506.946, 516.223 505.886 L 520 503.959 520 467.480 L 520 431 503.500 431 C 494.425 431, 487 431.366, 487 431.813 M 627.924 465.750 L 625.500 468.500 628.250 466.076 L 631 463.651 631 509.305 L 631 554.958 611.250 555.251 L 591.500 555.545 611.750 555.772 L 632 556 632 509.500 C 632 483.925, 631.628 463, 631.174 463 C 630.720 463, 629.258 464.238, 627.924 465.750 M 537.667 525.667 C 537.300 526.033, 537 533.008, 537 541.167 L 537 556 556.750 555.773 L 576.500 555.546 557.200 555.251 L 537.900 554.956 538.200 539.977 C 538.365 531.738, 538.462 524.998, 538.417 524.999 C 538.371 524.999, 538.033 525.300, 537.667 525.667 M 520.365 544.500 C 520.368 550, 520.536 552.122, 520.738 549.216 C 520.941 546.311, 520.939 541.811, 520.734 539.216 C 520.528 536.622, 520.363 539, 520.365 544.500 M 491.803 555.746 C 497.470 555.925, 506.470 555.924, 511.803 555.745 C 517.136 555.565, 512.500 555.419, 501.500 555.420 C 490.500 555.421, 486.136 555.568, 491.803 555.746 M 533.500 608.048 L 527.500 608.760 535.500 608.776 C 539.900 608.786, 544.737 608.840, 546.250 608.897 L 549 609 549 670.500 L 549 732 537.485 732 L 525.970 732 526.235 670 C 526.381 635.900, 526.163 608, 525.750 608 C 525.337 608, 525 636.074, 525 670.387 L 525 732.773 528.176 733.239 C 529.923 733.496, 535.436 733.642, 540.426 733.566 L 549.500 733.426 549.757 670.845 L 550.015 608.264 546.257 607.643 C 544.191 607.301, 541.825 607.093, 541 607.179 C 540.175 607.266, 536.800 607.656, 533.500 608.048 M 732.256 610.645 C 727.723 612.879, 725 617.698, 725 623.486 C 725 627.670, 725.462 628.698, 728.882 632.118 C 732.489 635.724, 733.146 635.990, 738.132 635.853 L 743.500 635.706 737.904 635.103 C 734.826 634.771, 731.533 633.858, 730.588 633.073 C 725.484 628.837, 724.468 619.974, 728.533 615.143 C 733.831 608.846, 742.671 608.583, 747.924 614.566 C 752.812 620.134, 752.089 627.614, 746.156 632.839 C 744.011 634.728, 743.918 634.969, 745.672 634.095 C 754.670 629.612, 753.921 614.372, 744.510 610.440 C 740.070 608.585, 736.307 608.648, 732.256 610.645 M 131 672.500 L 131 733 134.250 733.110 C 137.370 733.215, 154.701 733.173, 156.250 733.056 C 156.662 733.025, 157 723.100, 157 711 L 157 689 162.250 689.006 C 168.105 689.013, 167.193 688.063, 174.719 702 C 185.750 722.426, 191.242 732.032, 192.243 732.650 C 193.572 733.471, 219.785 733.751, 221.068 732.958 C 221.549 732.660, 217.716 725.685, 212.548 717.458 C 196.360 691.686, 192.814 685.851, 193.162 685.555 C 193.348 685.398, 195.176 684.487, 197.225 683.532 C 203.631 680.546, 209.701 674.352, 213.213 667.218 C 216.298 660.953, 216.500 659.894, 216.500 650.021 C 216.500 640.718, 216.192 638.843, 213.840 633.825 C 212.376 630.704, 209.293 626.103, 206.987 623.602 C 202.403 618.629, 192.191 612.948, 188.090 613.089 C 186.200 613.155, 186.733 613.519, 190.064 614.438 C 200.356 617.279, 208.559 624.415, 213.216 634.580 C 215.095 638.681, 215.472 641.247, 215.484 650 C 215.497 659.284, 215.192 661.154, 212.851 666.148 C 209.591 673.104, 203.781 679.051, 196.663 682.718 L 191.261 685.500 201.885 702.500 C 207.728 711.850, 214.194 722.022, 216.254 725.104 C 218.314 728.185, 220 730.998, 220 731.354 C 220 731.709, 213.813 731.997, 206.250 731.994 L 192.500 731.987 190.634 728.744 C 189.608 726.960, 184.477 717.625, 179.232 708 C 173.987 698.375, 169.006 689.697, 168.162 688.715 C 166.976 687.337, 165.418 686.995, 161.317 687.215 L 156.007 687.500 156.003 709.750 L 156 732 144 732 L 132 732 132 672.516 L 132 613.033 158.750 612.749 L 185.500 612.466 158.250 612.233 L 131 612 131 672.500 M 666.713 621.621 C 666.321 622.013, 666 627.208, 666 633.167 L 666 644 658.500 644 L 651 644 651 654.500 C 651 666.311, 650.237 665.394, 659.750 665.017 L 664 664.849 664 688.743 C 664 715.509, 664.807 720.432, 670.198 726.573 C 675.041 732.089, 680.170 734.204, 690.074 734.768 C 698.234 735.234, 701.627 734.710, 709.250 731.805 C 711.983 730.764, 712 730.700, 712 721.262 C 712 711.870, 711.976 711.774, 709.750 712.482 C 708.513 712.876, 704.718 713.429, 701.317 713.711 C 695.663 714.181, 694.914 714.005, 692.567 711.658 C 690.301 709.392, 689.990 708.236, 689.917 701.795 C 689.871 697.783, 689.759 687.975, 689.667 680 L 689.500 665.500 698.500 665.302 C 703.450 665.193, 708.528 665.080, 709.784 665.052 C 712.035 665.001, 712.064 664.848, 711.784 654.260 L 711.500 643.520 700.550 643.510 L 689.600 643.500 689.875 632.877 C 690.145 622.472, 690.104 622.244, 687.826 621.744 C 684.128 620.933, 667.498 620.835, 666.713 621.621 M 667 634 L 667 645 659.662 645 L 652.324 645 652.127 654.451 L 651.930 663.903 658.215 664.201 L 664.500 664.500 665 690.500 L 665.500 716.500 668.486 721.892 C 671.868 727.999, 676.298 731.338, 683.328 733.080 C 689.344 734.571, 701.035 733.775, 706.750 731.486 L 711 729.783 711 721.416 L 711 713.050 708.435 714.025 C 701.949 716.491, 691.285 714.392, 689.439 710.287 C 688.997 709.304, 688.449 698.487, 688.221 686.250 L 687.807 664 699.404 664 L 711 664 711 654.500 L 711 645 699.500 645 L 688 645 688 634 L 688 623 677.500 623 L 667 623 667 634 M 156 649.748 L 156 667.742 162.750 668.379 C 168.641 668.934, 179.291 668.042, 180.437 666.896 C 180.655 666.678, 175.471 666.660, 168.917 666.855 L 157 667.211 157 649.979 L 157 632.748 168.250 633.197 C 180.416 633.682, 184.217 634.917, 187.885 639.581 C 190.496 642.900, 191.415 647.746, 190.540 653.579 C 190.017 657.069, 188.913 659.087, 185.852 662.148 C 183.650 664.350, 182.670 665.709, 183.674 665.168 C 194.701 659.225, 194.746 641.160, 183.750 634.980 C 180.111 632.935, 177.812 632.531, 167.750 632.172 L 156 631.753 156 649.748 M 364.277 644.115 C 360.854 645.296, 356.274 647.785, 354.099 649.648 C 350.217 652.970, 350.135 652.991, 349.708 650.767 C 349.450 649.422, 349.217 650.105, 349.136 652.445 L 349 656.391 352.250 652.843 C 358.420 646.107, 369.145 642.385, 379.791 643.283 C 397.590 644.784, 407.167 654.950, 409.076 674.369 C 409.569 679.391, 409.951 694.413, 409.923 707.750 L 409.873 732 398.493 732 L 387.113 732 386.806 703.174 L 386.500 674.349 383.839 670.331 C 380.128 664.727, 375.263 662.608, 367.683 663.295 C 360.405 663.955, 354.677 667.587, 351.589 673.500 C 349.645 677.222, 349.479 679.393, 349.191 704.750 L 348.882 732 337.941 732 L 327 732 327 688.500 L 327 645 338.559 645 C 344.916 645, 349.911 644.663, 349.657 644.250 C 349.404 643.837, 343.977 643.640, 337.598 643.811 L 326 644.121 326 688.493 C 326 729.914, 326.116 732.895, 327.750 733.315 C 329.169 733.680, 344.735 733.532, 349.750 733.106 C 350.718 733.024, 351 726.667, 351 704.950 C 351 674.251, 351.105 673.613, 357.009 668.646 C 366.280 660.845, 382.201 664.100, 384.621 674.292 C 385.040 676.056, 385.409 689.723, 385.442 704.662 C 385.474 719.601, 385.875 732.201, 386.333 732.662 C 386.791 733.123, 392.416 733.500, 398.833 733.500 L 410.500 733.500 410.451 701 C 410.404 669.309, 410.344 668.352, 408.055 662.551 C 405.067 654.979, 398.497 647.900, 391.714 644.941 C 384.123 641.631, 372.493 641.281, 364.277 644.115 M 456.500 642.680 C 439.705 646.439, 429.264 655.166, 426.552 667.713 C 425.765 671.354, 424.422 670.760, 439.786 673.566 C 444.893 674.499, 449.200 675.091, 449.358 674.881 C 449.516 674.671, 450.423 672.399, 451.374 669.831 C 453.451 664.223, 455.799 662.529, 462.760 661.617 C 469.447 660.742, 475.304 662.300, 477.946 665.659 C 479.076 667.095, 480 667.837, 480 667.309 C 480 665.824, 475.814 662.252, 472.685 661.067 C 469.140 659.723, 463.582 659.711, 458.814 661.035 C 454.542 662.222, 450.466 666.602, 449.487 671.060 C 448.876 673.841, 448.525 674.094, 446.152 673.464 C 444.693 673.076, 439.900 672.219, 435.500 671.559 C 426.719 670.242, 426.866 670.439, 429.187 663.084 C 430.660 658.415, 437.422 651.327, 443.191 648.403 C 456.750 641.532, 478.706 641.329, 489.460 647.976 C 494.717 651.224, 499.863 657.800, 501.523 663.388 C 502.595 667, 503.015 673.722, 503.056 687.932 C 503.125 711.557, 503.770 714.357, 509.250 714.810 L 513 715.121 513 723.560 L 513 732 500.655 732 C 487.096 732, 486.160 731.627, 483.973 725.354 L 482.922 722.337 479.469 725.594 C 472.359 732.299, 457.061 735.559, 444.858 732.970 C 436.335 731.161, 430.264 726.824, 426.704 720 C 424.114 715.036, 423.867 713.720, 424.171 706.500 C 424.468 699.446, 424.880 697.964, 427.656 693.962 C 432.846 686.481, 440.722 683.075, 458.954 680.426 C 468.145 679.091, 468.225 679.058, 461.109 679.540 C 444.195 680.685, 432.313 685.598, 426.539 693.835 C 423.859 697.658, 423.459 699.146, 423.154 706.429 C 422.850 713.669, 423.116 715.292, 425.311 719.593 C 428.281 725.417, 431.875 728.976, 438 732.160 C 441.920 734.199, 443.917 734.500, 453.500 734.500 C 465.959 734.500, 471.192 733.027, 478.474 727.468 C 482.727 724.221, 482.834 724.197, 483.418 726.325 C 483.747 727.521, 484.960 729.621, 486.113 730.990 C 488.048 733.288, 488.955 733.500, 497.855 733.726 C 503.160 733.861, 508.962 733.733, 510.750 733.440 L 514 732.909 514 723.455 L 514 714 510.622 714 C 508.765 714, 506.779 713.438, 506.210 712.750 C 505.610 712.026, 504.891 701.827, 504.500 688.500 C 503.867 666.972, 503.666 665.148, 501.354 660.003 C 499.996 656.980, 497.898 653.449, 496.692 652.158 C 493.465 648.701, 486.747 645.018, 480.764 643.425 C 475.860 642.120, 461.037 641.664, 456.500 642.680 M 793.251 643.545 C 773.117 648.967, 762 664.738, 762 687.879 C 762 703.606, 765.112 712.584, 773.893 722.192 C 781.034 730.006, 790.189 734.091, 802.083 734.769 C 817.724 735.661, 828.998 732.055, 837.665 723.387 C 842.043 719.010, 847 709.819, 847 706.080 C 847 704.318, 842.465 702.202, 841.264 703.403 C 840.989 703.678, 841.976 704.207, 843.458 704.579 C 845.612 705.119, 846.043 705.693, 845.605 707.436 C 841.581 723.470, 826.177 734, 806.745 734 C 787.067 734, 771.817 723.906, 765.407 706.637 C 762.447 698.664, 762.665 677.684, 765.793 669.500 C 770.148 658.106, 778.988 649.391, 790.221 645.419 C 800.234 641.878, 818.621 642.725, 827.247 647.126 C 833.182 650.154, 839.594 656.544, 842.452 662.279 C 845.367 668.129, 845.690 671, 843.434 671 C 842.573 671, 837.761 671.976, 832.740 673.169 C 827.720 674.362, 823.467 674.925, 823.289 674.419 C 821.907 670.498, 817.912 665.395, 815.016 663.854 C 810.239 661.313, 800.585 661.346, 796.366 663.919 C 789.246 668.260, 786.070 675.682, 786.024 688.091 C 785.963 704.689, 793.776 715, 806.415 715 C 814.920 715, 820.703 710.736, 822.739 702.963 C 823.488 700.104, 824.070 699.541, 826.073 699.734 C 828.286 699.947, 828.323 699.886, 826.500 699.054 C 823.372 697.625, 823.256 697.715, 821.548 702.856 C 819.037 710.416, 814.208 714, 806.534 714 C 793.291 714, 786.028 703.017, 787.271 684.873 C 788.279 670.170, 793.469 663.812, 804.978 663.183 C 810.509 662.881, 812.032 663.182, 815 665.163 C 816.925 666.449, 819.388 669.413, 820.474 671.750 C 821.560 674.087, 823.135 675.990, 823.974 675.978 C 824.813 675.966, 830 674.917, 835.500 673.646 C 842.765 671.968, 845.587 670.887, 845.818 669.695 C 846.385 666.769, 840.829 656.079, 836.894 652.523 C 826.595 643.219, 808.379 639.471, 793.251 643.545 M 876 642.875 C 866.487 644.958, 858.286 651.023, 854.871 658.500 C 852.586 663.502, 852.426 673.687, 854.551 678.782 C 856.623 683.750, 861.466 688.650, 867.201 691.581 C 871.775 693.919, 894.013 700.320, 894.806 699.528 C 895.024 699.310, 893.244 698.628, 890.851 698.012 C 877.718 694.634, 867.052 690.759, 863.323 688.012 C 851.788 679.514, 850.743 660.317, 861.328 651.364 C 869.650 644.324, 883.922 641.370, 897.202 643.939 C 908.349 646.095, 917.835 653.433, 920.451 661.925 C 921.333 664.787, 921.887 665.643, 921.930 664.210 C 922.121 657.931, 912.790 647.545, 904.195 644.471 C 898.995 642.612, 881.680 641.631, 876 642.875 M 290.805 643.807 L 287.110 644.114 286.805 673.307 C 286.508 701.719, 286.439 702.598, 284.212 706.179 C 280.882 711.535, 274.520 714.350, 266.982 713.805 C 260.200 713.315, 257.673 711.580, 254.881 705.500 C 253.236 701.917, 253.042 698.501, 253.022 672.750 L 253 644 240.462 644 L 227.924 644 228.212 677.750 L 228.500 711.500 231.120 717.086 C 236.562 728.692, 244.835 734.122, 258.098 734.794 C 268.660 735.330, 275.959 733.441, 282.435 728.497 L 287 725.013 287 728.538 C 287 730.517, 287.573 732.283, 288.307 732.564 C 290.086 733.247, 308.071 733.785, 310.250 733.220 C 311.884 732.797, 312 729.817, 312 688.454 L 312 644.142 303.250 643.821 C 298.438 643.644, 292.837 643.638, 290.805 643.807 M 558.454 644.073 C 558.155 644.558, 563.745 659.262, 587.105 719.434 C 591.310 730.264, 591.537 732.698, 588.784 737.406 C 585.497 743.028, 582.057 745.218, 576.005 745.544 C 569.724 745.883, 568.041 747, 573.813 747 C 582.379 747, 587.788 743.257, 591.261 734.926 C 592.878 731.047, 592.658 730.407, 566.634 663.425 C 562.985 654.033, 560 646.032, 560 645.644 C 560 645.256, 565.447 645.065, 572.105 645.219 L 584.210 645.500 589.922 662.500 C 604.782 706.723, 604.292 705.436, 605.272 702.882 C 605.775 701.572, 608.361 693.525, 611.020 685 C 620.144 655.737, 623.019 646.779, 623.568 645.890 C 624.330 644.656, 647 644.741, 647 645.978 C 647 646.516, 642.443 659.228, 636.873 674.228 C 631.303 689.228, 623.427 710.500, 619.369 721.500 C 607.381 754.001, 604.289 758.973, 592.315 765.007 C 588.396 766.982, 585.593 767.507, 577.250 767.830 L 567 768.227 567 757.197 C 567 750.661, 567.418 745.960, 568.025 745.658 C 568.589 745.379, 568.476 745.266, 567.775 745.408 C 566.831 745.600, 566.500 748.632, 566.500 757.083 L 566.500 768.500 577 768.500 C 586.394 768.500, 588.081 768.214, 593.021 765.789 C 601.791 761.481, 608.894 753.362, 612.444 743.586 C 617.267 730.300, 637.515 675.530, 639.463 670.500 C 646.052 653.480, 649.099 644.766, 648.626 644.293 C 648.338 644.004, 642.590 643.825, 635.853 643.894 C 627.321 643.982, 623.365 644.397, 622.813 645.260 C 622.377 645.942, 620.180 652.350, 617.931 659.500 C 615.682 666.650, 611.721 679.209, 609.129 687.410 L 604.416 702.319 594.744 673.528 C 589.424 657.694, 584.900 644.567, 584.691 644.358 C 584.062 643.728, 558.834 643.454, 558.454 644.073 M 731.750 643.800 L 726 644.100 726 688.531 L 726 732.962 728.296 733.538 C 730.211 734.019, 734.511 733.925, 749.750 733.070 C 750.730 733.015, 751 723.396, 751 688.500 C 751 653.597, 750.730 643.988, 749.750 643.943 C 742.058 643.594, 736.542 643.550, 731.750 643.800 M 229 676.318 C 229 712.150, 229.404 714.741, 236.314 723.217 C 238.753 726.209, 242.636 729.480, 245.494 730.951 C 249.835 733.185, 251.688 733.500, 260.494 733.500 C 269.837 733.500, 271.012 733.269, 277.233 730.206 C 280.913 728.394, 284.841 725.746, 285.962 724.321 L 288 721.730 288 726.865 L 288 732 299.500 732 L 311 732 311 688.500 L 311 645 299.500 645 L 288 645 287.978 672.750 C 287.952 705.186, 287.607 706.756, 279.359 711.987 C 275.470 714.453, 273.546 715, 268.755 715 C 261.601 715, 257.922 713.221, 254.847 708.274 C 252.542 704.568, 252.495 703.967, 252.195 674.750 L 251.890 645 240.445 645 L 229 645 229 676.318 M 727 688.500 L 727 732 738.500 732 L 750 732 750 688.500 L 750 645 738.500 645 L 727 645 727 688.500 M 881 660.709 C 878.453 661.646, 875.997 664.231, 876.063 665.905 C 876.104 666.936, 876.448 666.700, 877.037 665.235 C 878.270 662.165, 882.446 660.740, 888.735 661.243 C 894.678 661.719, 897.633 663.803, 898.811 668.351 C 899.241 670.008, 900.107 671.536, 900.736 671.745 C 901.366 671.955, 900.807 669.901, 899.494 667.180 C 897.719 663.500, 896.288 661.947, 893.905 661.117 C 890.593 659.962, 883.630 659.742, 881 660.709 M 913.500 668.462 C 904.599 670.395, 902.966 670.976, 908 670.421 C 913.493 669.815, 924.281 667.233, 921.500 667.190 C 920.400 667.173, 916.800 667.745, 913.500 668.462 M 480.296 672.457 C 480.504 676.802, 479.370 677.562, 472 678.016 C 469.942 678.143, 469.269 678.430, 470.367 678.712 C 473.310 679.468, 480.771 678.038, 481.318 676.613 C 481.591 675.903, 481.429 673.788, 480.960 671.911 L 480.106 668.500 480.296 672.457 M 876 670.592 C 876 671.382, 877.416 672.890, 879.146 673.943 C 882.459 675.957, 895.734 679.599, 896.602 678.732 C 896.880 678.453, 893.625 677.450, 889.368 676.503 C 883.645 675.230, 880.893 674.047, 878.813 671.967 C 877.005 670.158, 876 669.667, 876 670.592 M 903.842 681.538 C 917.019 686.607, 922 693.116, 922 705.264 C 922 722.373, 910.593 732.725, 890.587 733.771 C 879.347 734.359, 871.903 732.890, 864.883 728.700 C 859.272 725.351, 853.773 718.447, 852.089 712.635 C 851.507 710.628, 851.156 710.220, 851.112 711.500 C 850.900 717.712, 859.932 728.299, 868.824 732.262 C 876.180 735.540, 892.587 735.928, 902.066 733.049 C 908.243 731.172, 910.163 729.997, 915.074 725.086 C 921.586 718.574, 923.238 714.352, 923.184 704.358 C 923.144 696.968, 920.837 691.892, 915.203 686.803 C 911.634 683.578, 901.741 678.927, 898.712 679.049 C 898.046 679.076, 900.354 680.196, 903.842 681.538 M 466.500 694.168 C 456.394 695.314, 450.540 698.013, 449.080 702.200 C 447.428 706.940, 447.748 708.686, 450.920 712.234 C 453.747 715.395, 454.092 715.500, 461.670 715.500 C 468.102 715.500, 470.161 715.089, 473.200 713.200 C 478.621 709.829, 481 705.385, 481 698.632 L 481 693 477.750 693.131 C 475.962 693.203, 470.900 693.670, 466.500 694.168 M 469.019 695.089 C 454.068 696.528, 447.887 700.655, 449.523 708.107 C 450.502 712.563, 454.269 714.500, 461.956 714.500 C 469.573 714.500, 474.194 712.319, 477.747 707.048 C 480.293 703.270, 481.022 693.889, 478.750 694.136 C 478.063 694.211, 473.683 694.640, 469.019 695.089 M 897.750 702.179 C 900.648 705.334, 900.599 708.192, 897.587 711.694 C 895.348 714.296, 894.641 714.499, 887.837 714.490 C 879.253 714.479, 875.746 712.705, 873.829 707.405 C 873.152 705.532, 872.014 704, 871.300 704 C 867.629 704, 851.364 707.306, 850.500 708.228 C 849.807 708.967, 850.038 709.105, 851.253 708.677 C 853.574 707.860, 871.194 704.813, 871.366 705.199 C 874.790 712.875, 878.217 715.305, 886.261 715.757 C 893.639 716.172, 898.974 713.956, 900.383 709.890 C 901.619 706.324, 900.435 702.296, 897.738 700.893 L 895.500 699.729 897.750 702.179" stroke="none" fill="#f1871f" fill-rule="evenodd"/><path d="M 482.500 238.344 C 456.319 245.136, 447.500 275.520, 465.755 296.034 C 481.644 313.889, 511.625 309.907, 522.454 288.504 C 524.898 283.673, 525.371 281.468, 525.532 274.168 C 525.746 264.479, 524.284 258.843, 519.876 252.365 C 511.858 240.581, 496.330 234.756, 482.500 238.344 M 393.500 297.098 C 389.331 298.382, 336.165 335.857, 333.594 339.323 C 332.220 341.175, 331.500 343.647, 331.500 346.508 C 331.500 351.815, 335.340 356.422, 341.237 358.189 C 344.775 359.249, 345.557 359.073, 351.802 355.811 C 355.511 353.874, 366.748 347.061, 376.773 340.672 L 395 329.056 407.174 331.535 C 413.870 332.899, 419.483 334.150, 419.649 334.315 C 419.944 334.610, 417.910 338.248, 394.998 378.417 C 385.368 395.299, 383.571 399.131, 383.204 403.555 C 382.667 410.029, 384.165 414.766, 387.985 418.673 C 389.602 420.327, 402.849 428.799, 417.422 437.501 C 435.443 448.260, 443.693 453.713, 443.210 454.547 C 442.623 455.559, 429.049 470.517, 400.144 502 C 397.872 504.475, 395.516 508.097, 394.909 510.048 C 392.681 517.205, 399.005 525.012, 407 524.977 C 411.290 524.959, 415.590 522.263, 431 509.932 C 433.475 507.952, 442.250 500.973, 450.500 494.424 C 469.669 479.207, 481.486 469.245, 486.362 464.189 C 490.775 459.615, 492.194 453.298, 490 448 C 488.249 443.772, 478.386 434.616, 445.299 406.500 L 442.946 404.500 450.581 393.500 C 454.781 387.450, 460.712 378.675, 463.761 374 C 466.811 369.325, 469.612 365.148, 469.986 364.717 C 470.584 364.028, 479.396 371.068, 498.303 387.340 C 504.947 393.058, 509.652 394.208, 515.349 391.505 C 519.405 389.580, 558.271 352.080, 566.624 342.033 C 571.012 336.754, 572 334.879, 572 331.830 C 572 326.639, 570.265 323.354, 566.285 321.006 C 561.058 317.922, 555.819 318.357, 551.286 322.250 C 538.621 333.130, 516.260 352.982, 515.112 354.365 C 514.366 355.264, 513.402 356, 512.970 356 C 512.190 356, 479.449 318.491, 471.072 308 C 464.885 300.251, 462.117 298.122, 457.517 297.573 C 449.311 296.592, 396.414 296.200, 393.500 297.098 M 374.429 427.750 C 372.370 431.462, 365.706 443.275, 359.618 454 L 348.551 473.500 318.897 503.500 C 288.788 533.960, 284.804 538.226, 283.749 541.127 C 282.670 544.095, 284.976 551.246, 287.793 553.670 C 293.452 558.537, 301.283 556.716, 310.904 548.295 C 311.782 547.527, 327.350 535.101, 345.500 520.682 L 378.500 494.465 390.269 477.982 C 396.742 468.917, 404.729 457.842, 408.019 453.371 C 411.309 448.900, 414 444.749, 414 444.147 C 414 443.544, 412.574 442.314, 410.830 441.412 C 407.101 439.484, 384.215 424.432, 381.921 422.399 C 379.275 420.054, 378.317 420.739, 374.429 427.750 M 621.845 471.310 C 598.113 491.025, 593.464 495.259, 592.746 497.816 C 592.331 499.292, 592.020 512.763, 592.055 527.750 L 592.118 555 611.559 555 L 631 555 631 509.500 C 631 484.475, 630.888 464.027, 630.750 464.060 C 630.612 464.093, 626.605 467.355, 621.845 471.310 M 567.500 510.148 C 563.650 512.372, 555.550 516.825, 549.500 520.043 L 538.500 525.894 538.223 540.447 L 537.947 555 556.973 555 L 576 555 576 530.500 C 576 517.025, 575.663 506.023, 575.250 506.052 C 574.837 506.081, 571.350 507.924, 567.500 510.148 M 516 533.904 C 515.175 534.382, 507.750 536.462, 499.500 538.525 C 491.250 540.589, 483.938 542.488, 483.250 542.746 C 482.444 543.047, 482 545.309, 482 549.107 L 482 555 501.250 555 L 520.500 555 520.326 544.250 C 520.147 533.186, 519.579 531.828, 516 533.904 M 526.419 608.917 C 526.189 609.146, 526 636.933, 526 670.667 L 526 732 537.500 732 L 549 732 549 670.500 L 549 609 546.250 608.927 C 532.768 608.567, 526.774 608.564, 526.419 608.917 M 733.415 611.369 C 726.644 614.432, 724.014 622.258, 727.494 628.989 C 729.703 633.260, 732.818 635, 738.258 635 C 746.312 635, 751 630.230, 751 622.035 C 751 613.611, 741.371 607.771, 733.415 611.369 M 132 672.500 L 132 732 144 732 L 156 732 156.003 709.750 L 156.007 687.500 161.317 687.215 C 165.418 686.995, 166.976 687.337, 168.162 688.715 C 169.006 689.697, 173.987 698.375, 179.232 708 C 184.477 717.625, 189.608 726.960, 190.634 728.744 L 192.500 731.987 206.250 731.994 C 213.813 731.997, 220 731.709, 220 731.354 C 220 730.998, 218.314 728.185, 216.254 725.104 C 214.194 722.022, 207.728 711.850, 201.885 702.500 L 191.261 685.500 196.663 682.718 C 203.781 679.051, 209.591 673.104, 212.851 666.148 C 215.192 661.154, 215.497 659.284, 215.484 650 C 215.472 641.247, 215.095 638.681, 213.216 634.580 C 208.458 624.195, 200.323 617.237, 189.600 614.382 C 185.926 613.403, 177.160 613.020, 158.250 613.012 L 132 613 132 672.500 M 667 634 L 667 645 659.662 645 L 652.324 645 652.127 654.451 L 651.930 663.903 658.215 664.201 L 664.500 664.500 665 690.500 L 665.500 716.500 668.486 721.892 C 671.868 727.999, 676.298 731.338, 683.328 733.080 C 689.344 734.571, 701.035 733.775, 706.750 731.486 L 711 729.783 711 721.416 L 711 713.050 708.435 714.025 C 701.949 716.491, 691.285 714.392, 689.439 710.287 C 688.997 709.304, 688.449 698.487, 688.221 686.250 L 687.807 664 699.404 664 L 711 664 711 654.500 L 711 645 699.500 645 L 688 645 688 634 L 688 623 677.500 623 L 667 623 667 634 M 156 649.739 L 156 667.724 162.304 668.370 C 173.697 669.537, 182.678 667.229, 187.683 661.847 C 194.895 654.094, 192.846 640.092, 183.750 634.980 C 180.111 632.935, 177.812 632.531, 167.750 632.172 L 156 631.753 156 649.739 M 366.416 644.422 C 359.866 646.595, 355.728 649.056, 352.250 652.848 L 349 656.391 349 650.695 L 349 645 338 645 L 327 645 327 688.500 L 327 732 337.941 732 L 348.882 732 349.191 704.750 C 349.479 679.393, 349.645 677.222, 351.589 673.500 C 354.677 667.587, 360.405 663.955, 367.683 663.295 C 375.263 662.608, 380.128 664.727, 383.839 670.331 L 386.500 674.349 386.806 703.174 L 387.113 732 398.493 732 L 409.873 732 409.923 707.750 C 409.951 694.413, 409.569 679.391, 409.076 674.369 C 407.609 659.445, 402.010 650.546, 391.103 645.800 C 385.242 643.250, 372.153 642.520, 366.416 644.422 M 453.773 644.555 C 439.280 648.068, 429.614 656.955, 427.804 668.429 C 427.538 670.121, 428.487 670.507, 435.500 671.559 C 439.900 672.219, 444.658 673.067, 446.073 673.444 C 448.408 674.065, 448.755 673.760, 449.841 670.138 C 451.393 664.957, 455.811 661.301, 461.560 660.439 C 470.198 659.143, 477.102 661.685, 479.625 667.090 C 481.256 670.582, 481.988 675.401, 481.106 676.829 C 480.648 677.569, 474.970 678.677, 466.921 679.595 C 442.286 682.405, 433.428 685.646, 427.652 693.962 C 424.686 698.233, 424.500 699.030, 424.500 707.500 C 424.500 715.693, 424.766 716.948, 427.472 721.500 C 429.107 724.250, 430.307 726.950, 430.139 727.500 C 429.971 728.050, 430.155 728.178, 430.548 727.785 C 430.942 727.392, 433.117 728.129, 435.382 729.423 C 447.970 736.615, 469.793 734.720, 479.469 725.594 L 482.922 722.337 483.973 725.354 C 486.160 731.627, 487.096 732, 500.655 732 L 513 732 513 723.560 L 513 715.121 509.250 714.810 C 503.770 714.357, 503.125 711.557, 503.056 687.932 C 503.015 673.722, 502.595 667, 501.523 663.388 C 499.863 657.800, 494.717 651.224, 489.460 647.976 C 481.847 643.270, 465.526 641.706, 453.773 644.555 M 795.050 644.092 C 779.850 647.072, 767.359 659.902, 763.884 676.106 C 762.307 683.459, 763.248 701.327, 765.511 707 C 772.409 724.295, 787.231 734, 806.745 734 C 826.148 734, 841.582 723.467, 845.592 707.489 C 846.036 705.721, 845.481 705.162, 842.313 704.180 C 833.038 701.304, 824.003 699.192, 823.655 699.818 C 823.447 700.193, 822.959 701.823, 822.572 703.439 C 820.851 710.613, 814.721 715, 806.415 715 C 793.776 715, 785.963 704.689, 786.024 688.091 C 786.070 675.682, 789.246 668.260, 796.366 663.919 C 800.585 661.346, 810.239 661.313, 815.016 663.854 C 817.912 665.395, 821.907 670.498, 823.289 674.419 C 823.467 674.925, 827.720 674.362, 832.740 673.169 C 837.761 671.976, 842.573 671, 843.434 671 C 845.690 671, 845.367 668.129, 842.452 662.279 C 839.606 656.568, 833.187 650.156, 827.318 647.162 C 819.929 643.393, 805.579 642.027, 795.050 644.092 M 875.410 644.134 C 869.278 645.514, 860.960 650.954, 857.555 655.813 C 855.008 659.447, 854.477 661.257, 854.181 667.313 C 853.871 673.655, 854.163 675.135, 856.666 679.902 C 860.622 687.437, 866.052 690.905, 880.113 694.878 C 895.423 699.204, 899.779 701.273, 900.618 704.615 C 902.410 711.752, 896.506 716.333, 886.261 715.757 C 879.138 715.357, 875.357 713.200, 873 708.191 C 871.339 704.662, 871.023 704.645, 857.275 707.360 C 851.931 708.415, 851.525 708.687, 851.841 711 C 852.365 714.837, 857.057 722.869, 860.454 725.743 C 862.129 727.160, 865.975 729.485, 869 730.910 C 874.002 733.265, 875.633 733.500, 887 733.500 C 898.367 733.500, 899.998 733.265, 905 730.910 C 916.925 725.294, 922 717.638, 922 705.264 C 922 690.100, 914.531 683.471, 891.302 678.017 C 886.415 676.870, 880.972 675.053, 879.208 673.980 C 876.488 672.326, 876 671.442, 876 668.170 C 876 663.128, 878.554 660.845, 884.873 660.238 C 892.571 659.498, 896.846 661.397, 899.134 666.571 C 901.197 671.235, 902.837 672.860, 903.862 671.259 C 904.213 670.710, 908.687 669.457, 913.805 668.473 C 918.922 667.490, 922.725 666.419, 922.256 666.093 C 921.787 665.767, 920.866 663.660, 920.210 661.412 C 917.995 653.821, 908.298 646.194, 898.201 644.099 C 891.992 642.811, 881.218 642.828, 875.410 644.134 M 229 676.318 C 229 712.150, 229.404 714.741, 236.314 723.217 C 238.753 726.209, 242.636 729.480, 245.494 730.951 C 249.835 733.185, 251.688 733.500, 260.494 733.500 C 269.837 733.500, 271.012 733.269, 277.233 730.206 C 280.913 728.394, 284.841 725.746, 285.962 724.321 L 288 721.730 288 726.865 L 288 732 299.500 732 L 311 732 311 688.500 L 311 645 299.500 645 L 288 645 287.978 672.750 C 287.952 705.186, 287.607 706.756, 279.359 711.987 C 275.470 714.453, 273.546 715, 268.755 715 C 261.601 715, 257.922 713.221, 254.847 708.274 C 252.542 704.568, 252.495 703.967, 252.195 674.750 L 251.890 645 240.445 645 L 229 645 229 676.318 M 560 645.644 C 560 646.032, 562.985 654.033, 566.634 663.425 C 592.658 730.407, 592.878 731.047, 591.261 734.926 C 587.499 743.950, 581.226 747.779, 571.993 746.686 L 567 746.094 567 757.161 L 567 768.227 577.250 767.830 C 585.593 767.507, 588.396 766.982, 592.315 765.007 C 604.289 758.973, 607.381 754.001, 619.369 721.500 C 623.427 710.500, 631.303 689.228, 636.873 674.228 C 642.443 659.228, 647 646.516, 647 645.978 C 647 644.741, 624.330 644.656, 623.568 645.890 C 623.019 646.779, 620.144 655.737, 611.020 685 C 608.361 693.525, 605.775 701.572, 605.272 702.882 C 604.292 705.436, 604.782 706.723, 589.922 662.500 L 584.210 645.500 572.105 645.219 C 565.447 645.065, 560 645.256, 560 645.644 M 727 688.500 L 727 732 738.500 732 L 750 732 750 688.500 L 750 645 738.500 645 L 727 645 727 688.500 M 466.500 694.168 C 456.394 695.314, 450.540 698.013, 449.080 702.200 C 447.428 706.940, 447.748 708.686, 450.920 712.234 C 453.747 715.395, 454.092 715.500, 461.670 715.500 C 468.102 715.500, 470.161 715.089, 473.200 713.200 C 478.621 709.829, 481 705.385, 481 698.632 L 481 693 477.750 693.131 C 475.962 693.203, 470.900 693.670, 466.500 694.168" stroke="none" fill="#063863" fill-rule="evenodd"/></svg>